<?xml version="1.0" encoding="UTF-8" standalone="no"?>
<svg
   width="10719"
   height="2683"
   viewBox="0 0 10719 2683"
   fill="none"
   version="1.1"
   id="svg55"
   sodipodi:docname="fedora-logo.svg"
   inkscape:version="1.4 (e7c3feb100, 2024-10-09)"
   xmlns:inkscape="http://www.inkscape.org/namespaces/inkscape"
   xmlns:sodipodi="http://sodipodi.sourceforge.net/DTD/sodipodi-0.dtd"
   xmlns:xlink="http://www.w3.org/1999/xlink"
   xmlns="http://www.w3.org/2000/svg"
   xmlns:svg="http://www.w3.org/2000/svg">
  <sodipodi:namedview
     id="namedview55"
     pagecolor="#ffffff"
     bordercolor="#000000"
     borderopacity="0.25"
     inkscape:showpageshadow="2"
     inkscape:pageopacity="0.0"
     inkscape:pagecheckerboard="0"
     inkscape:deskcolor="#d1d1d1"
     inkscape:zoom="0.058546251"
     inkscape:cx="5312.0395"
     inkscape:cy="-2502.2951"
     inkscape:window-width="1920"
     inkscape:window-height="1008"
     inkscape:window-x="0"
     inkscape:window-y="0"
     inkscape:window-maximized="1"
     inkscape:current-layer="svg55" />
  <defs
     id="defs55">
    <linearGradient
       id="paint0_linear_149_2"
       x1="0.643555"
       y1="1341.84"
       x2="10718.8"
       y2="1341.84"
       gradientUnits="userSpaceOnUse">
      <stop
         stop-color="#FFC18F"
         id="stop7" />
      <stop
         offset="0.125"
         stop-color="#DE8673"
         id="stop8" />
      <stop
         offset="0.255"
         stop-color="#B64D66"
         id="stop9" />
      <stop
         offset="0.425"
         stop-color="#82578B"
         id="stop10" />
      <stop
         offset="0.56"
         stop-color="#6B4793"
         id="stop11" />
      <stop
         offset="0.775"
         stop-color="#4F62B0"
         id="stop12" />
      <stop
         offset="1"
         stop-color="#5180C4"
         id="stop13" />
    </linearGradient>
    <linearGradient
       id="paint1_linear_149_2"
       x1="0.643555"
       y1="1341.84"
       x2="10718.8"
       y2="1341.84"
       gradientUnits="userSpaceOnUse">
      <stop
         stop-color="#FFC18F"
         id="stop14" />
      <stop
         offset="0.125"
         stop-color="#DE8673"
         id="stop15" />
      <stop
         offset="0.255"
         stop-color="#B64D66"
         id="stop16" />
      <stop
         offset="0.425"
         stop-color="#82578B"
         id="stop17" />
      <stop
         offset="0.56"
         stop-color="#6B4793"
         id="stop18" />
      <stop
         offset="0.775"
         stop-color="#4F62B0"
         id="stop19" />
      <stop
         offset="1"
         stop-color="#5180C4"
         id="stop20" />
    </linearGradient>
    <linearGradient
       id="paint2_linear_149_2"
       x1="0.643555"
       y1="1341.84"
       x2="10718.8"
       y2="1341.84"
       gradientUnits="userSpaceOnUse">
      <stop
         stop-color="#FFC18F"
         id="stop21" />
      <stop
         offset="0.125"
         stop-color="#DE8673"
         id="stop22" />
      <stop
         offset="0.255"
         stop-color="#B64D66"
         id="stop23" />
      <stop
         offset="0.425"
         stop-color="#82578B"
         id="stop24" />
      <stop
         offset="0.56"
         stop-color="#6B4793"
         id="stop25" />
      <stop
         offset="0.775"
         stop-color="#4F62B0"
         id="stop26" />
      <stop
         offset="1"
         stop-color="#5180C4"
         id="stop27" />
    </linearGradient>
    <linearGradient
       id="paint3_linear_149_2"
       x1="0.643555"
       y1="1341.84"
       x2="10718.8"
       y2="1341.84"
       gradientUnits="userSpaceOnUse">
      <stop
         stop-color="#FFC18F"
         id="stop28" />
      <stop
         offset="0.125"
         stop-color="#DE8673"
         id="stop29" />
      <stop
         offset="0.255"
         stop-color="#B64D66"
         id="stop30" />
      <stop
         offset="0.425"
         stop-color="#82578B"
         id="stop31" />
      <stop
         offset="0.56"
         stop-color="#6B4793"
         id="stop32" />
      <stop
         offset="0.775"
         stop-color="#4F62B0"
         id="stop33" />
      <stop
         offset="1"
         stop-color="#5180C4"
         id="stop34" />
    </linearGradient>
    <linearGradient
       id="paint4_linear_149_2"
       x1="0.643555"
       y1="1341.84"
       x2="10718.8"
       y2="1341.84"
       gradientUnits="userSpaceOnUse">
      <stop
         stop-color="#FFC18F"
         id="stop35" />
      <stop
         offset="0.125"
         stop-color="#DE8673"
         id="stop36" />
      <stop
         offset="0.255"
         stop-color="#B64D66"
         id="stop37" />
      <stop
         offset="0.425"
         stop-color="#82578B"
         id="stop38" />
      <stop
         offset="0.56"
         stop-color="#6B4793"
         id="stop39" />
      <stop
         offset="0.775"
         stop-color="#4F62B0"
         id="stop40" />
      <stop
         offset="1"
         stop-color="#5180C4"
         id="stop41" />
    </linearGradient>
    <linearGradient
       id="paint5_linear_149_2"
       x1="0.643555"
       y1="1341.84"
       x2="10718.8"
       y2="1341.84"
       gradientUnits="userSpaceOnUse">
      <stop
         stop-color="#FFC18F"
         id="stop42" />
      <stop
         offset="0.125"
         stop-color="#DE8673"
         id="stop43" />
      <stop
         offset="0.255"
         stop-color="#B64D66"
         id="stop44" />
      <stop
         offset="0.425"
         stop-color="#82578B"
         id="stop45" />
      <stop
         offset="0.56"
         stop-color="#6B4793"
         id="stop46" />
      <stop
         offset="0.775"
         stop-color="#4F62B0"
         id="stop47" />
      <stop
         offset="1"
         stop-color="#5180C4"
         id="stop48" />
    </linearGradient>
    <linearGradient
       id="paint6_linear_149_2"
       x1="0.643555"
       y1="1341.84"
       x2="10718.8"
       y2="1341.84"
       gradientUnits="userSpaceOnUse">
      <stop
         stop-color="#FFC18F"
         id="stop49" />
      <stop
         offset="0.14575924"
         stop-color="#DE8673"
         id="stop50" />
      <stop
         offset="0.255"
         stop-color="#B64D66"
         id="stop51" />
      <stop
         offset="0.41957"
         stop-color="#82578B"
         id="stop52" />
      <stop
         offset="0.56"
         stop-color="#6B4793"
         id="stop53" />
      <stop
         offset="0.775"
         stop-color="#4F62B0"
         id="stop54" />
      <stop
         offset="1"
         stop-color="#5180C4"
         id="stop55" />
    </linearGradient>
    <linearGradient
       inkscape:collect="always"
       xlink:href="#paint6_linear_149_2"
       id="linearGradient7"
       x1="108.60149"
       y1="28.179064"
       x2="981.15759"
       y2="323.98129"
       gradientUnits="userSpaceOnUse"
       gradientTransform="matrix(11.869322,0,0,11.762323,-952.38021,-1108.6678)" />
    <linearGradient
       id="bggrad"
       x1="0"
       x2="1"
       y1="0"
       y2="0">
      <stop
         offset="0"
         stop-color="#ff8a00"
         id="stop1" />
      <stop
         offset="0.26564956"
         stop-color="#b94bff"
         id="stop2" />
      <stop
         offset="1"
         stop-color="#00c3ff"
         id="stop3" />
    </linearGradient>
  </defs>
  <path
     style="fill:url(#linearGradient7);fill-opacity:1;stroke-width:11.8157"
     d="m 4634.3591,1657.2398 v -629.2832 h 276.816 c 315,0 352.0916,6.9939 438.963,82.7762 30.4573,26.5629 64.2011,71.7867 80.5337,107.9182 26.0888,57.6825 28.1416,77.1315 28.3675,268.0363 l 0.2375,205.8396 -37.27,77.9359 c -28.8309,60.3043 -49.9814,86.6119 -93.5069,116.2894 -85.2925,58.1494 -142.4908,70.4281 -328.0797,70.4281 H 4836.137 v 164.6714 164.6736 h -100.8895 -100.8884 z m 530.0361,92.2061 c 30.5163,-15.3781 54.6706,-40.3001 72.9251,-75.2436 24.9733,-47.8198 26.9913,-64.8904 23.7385,-201.4028 -3.0745,-128.9668 -6.8719,-153.5453 -28.0351,-181.589 -54.9788,-72.8724 -77.0677,-80.5908 -243.4395,-85.0605 l -153.4472,-4.1203 v 290.9727 290.973 l 141.3162,-5.7683 c 108.2722,-4.419 151.9749,-11.1424 186.942,-28.7612 z m -3907.3866,416.5145 c -38.184,-40.433 -109.7677,-116.019 -159.0768,-167.9684 -49.307,-51.9506 -167.09795,-176.2067 -261.75623,-276.1264 -94.65693,-99.9198 -218.8397,-230.7651 -275.96081,-290.7694 -57.12237,-60.0031 -103.85774,-113.8864 -103.85774,-119.7392 0,-25.7725 150.32135,-185.2437 586.15058,-621.83415 l 249.7804,-250.21638 201.2291,3.20519 c 147.4134,2.3513 202.541,7.11622 206.1337,17.8223 2.6966,8.03837 -101.4267,121.84009 -231.3877,252.89117 -317.552,320.21277 -572.74033,587.34457 -572.74033,599.54457 0,5.4894 65.42953,77.4466 145.39963,159.9039 144.8803,149.3875 332.9906,348.8823 563.8928,598.0213 66.8586,72.1395 121.5609,139.6259 121.5609,149.9697 0,16.492 -24.6282,18.8091 -199.9721,18.8091 H 1326.4318 Z M 185.73641,2001.8771 C 174.95785,1991.1946 171.49323,1805.771 171.49323,1239.3762 V 490.99014 l 27.47157,-25.57483 c 25.41098,-23.65755 39.51537,-25.57483 188.06942,-25.57483 140.51135,0 163.05603,2.68892 180.24277,21.5097 16.99328,18.60924 19.64259,55.55936 19.64259,273.95747 v 252.44779 l -92.68046,123.92316 c -152.93984,204.4962 -148.80091,190.459 -156.192,529.635 -5.83615,267.8023 -8.12693,291.9891 -30.05672,317.3911 -50.43746,58.4223 -92.03939,73.1134 -122.25399,43.1724 z m 8495.22189,-48.5889 c -113.2568,-31.1608 -199.7251,-101.6959 -254.4063,-207.531 -45.1634,-87.4305 -67.8338,-441.8788 -42.0531,-657.7256 20.2841,-169.88921 100.0219,-296.3071 227.4045,-360.55758 84.7226,-42.72779 192.4248,-55.98283 407.5095,-50.14989 183.9149,4.98842 195.2375,6.71626 269.504,41.1588 98.8357,45.833 166.2537,115.35889 207.7727,214.26474 31.5961,75.26133 32.7,85.42633 37.1507,342.21783 3.6676,211.5736 0.8317,280.5961 -14.0887,344.1526 -36.9608,157.3576 -109.6727,250.9657 -243.0596,312.9472 -64.3435,29.8964 -75.1214,31.0868 -304.0922,33.5721 -162.8119,1.7643 -254.4306,-2.1113 -291.6415,-12.3492 z m 469.681,-196.7037 c 66.219,-18.9445 140.818,-98.3554 158.7644,-169.0023 15.4059,-60.6372 20.4508,-450.136 6.5636,-507.2079 -24.13,-99.17167 -87.6313,-168.09891 -177.1973,-192.34573 -26.112,-7.06803 -114.2415,-12.82925 -195.8433,-12.80213 -131.1916,0 -155.3701,3.2805 -208.8882,27.97908 -121.886,56.23795 -151.9274,153.05488 -144.569,465.85848 5.2464,222.8749 15.8692,268.6528 77.0803,331.9705 30.0762,31.1219 102.9539,61.1347 175.4874,72.2677 57.5309,8.8311 257.0892,-1.9784 308.6021,-16.7177 z m -7307.342,56.5073 c -129.9029,-171.2065 -296.6821,-384.5998 -350.9886,-449.0855 -21.4102,-25.4255 -38.927,-55.5582 -38.927,-66.9653 0,-11.4059 115.4986,-137.4863 256.6649,-280.1786 l 256.665,-259.4392 h 123.1535 c 83.1279,0 123.1525,4.28979 123.1525,13.1985 0,12.97152 -54.4417,71.02213 -338.2751,360.7011 -78.3374,79.9509 -146.3369,152.268 -151.1095,160.7051 -5.1251,9.0593 4.5953,32.5957 23.7385,57.4836 109.5492,142.4218 187.516,241.8452 287.4419,366.5412 133.7289,166.8802 178.2042,225.3943 178.2042,234.4607 0,3.6675 -58.5894,6.6669 -130.1964,6.6669 h -130.1974 z m 567.6881,125.9416 c -71.4148,-25.9618 -134.5436,-82.9915 -168.8985,-152.5785 -30.6409,-62.0592 -31.5411,-70.0387 -31.7385,-281.1268 -0.2259,-248.626 13.0756,-307.6528 86.2044,-382.3283 79.6123,-81.2954 109.9418,-89.1619 343.7612,-89.1619 233.604,0 262.8159,7.5573 345.3548,89.3513 72.4133,71.7608 87.8878,136.8676 87.7939,369.3792 -0.1182,238.1483 -15.0693,297.9279 -94.2921,376.4357 -74.9167,74.2426 -130.4127,88.3361 -343.9395,87.347 -122.0823,-0.5646 -193.2955,-6.0647 -224.2457,-17.3177 z m 374.4812,-183.5664 c 74.2381,-36.8995 86.2984,-73.638 86.2984,-262.8986 0,-144.0509 -3.0143,-169.8291 -24.0699,-205.8406 -35.729,-61.1135 -91.0899,-83.0808 -211.8709,-84.0748 -123.6232,-1.0233 -166.9892,19.0198 -205.9373,95.1455 -23.748,46.4189 -26.1733,66.8217 -23.7258,199.6901 3.9441,214.1567 36.3359,266.7343 174.1914,282.7452 86.4387,10.0392 150.6989,2.2807 205.1141,-24.7668 z m 426.9165,-165.8593 c 3.4407,-352.1829 4.6808,-369.5899 29.5992,-415.7359 33.6193,-62.2603 98.0736,-117.869 154.6757,-133.4459 24.6598,-6.7857 101.7106,-12.3681 171.2246,-12.4045 116.9551,0 131.3394,2.5171 192.6897,34.4965 l 66.3024,34.5625 56.5641,-31.5007 c 50.0996,-27.9003 71.8486,-31.9959 190.277,-35.8375 73.5426,-2.3877 151.556,-1.0116 173.3662,3.0359 66.2444,12.3163 142.5173,71.0679 180.5334,139.0648 l 34.6378,61.9544 3.6021,361.6915 3.6032,361.6915 h -95.587 -95.5892 l -0.2723,-291.1175 c -0.1784,-160.1147 -5.1304,-311.824 -11.0534,-337.1318 -5.9241,-25.3078 -26.9997,-62.0979 -46.8373,-81.7564 -31.118,-30.8373 -46.295,-36.3125 -110.6069,-39.9012 -94.7258,-5.285 -144.1848,21.3533 -162.7665,87.6646 -7.3214,26.131 -12.5584,173.0624 -12.5964,353.4813 l -0.1193,308.761 h -100.8884 -100.8895 v -318.7461 c 0,-358.8944 -5.3858,-387.4415 -78.8154,-417.8459 -98.3058,-40.7047 -206.6065,-5.5413 -228.9929,74.3497 -7.3225,26.131 -12.5595,173.0624 -12.5975,353.4813 l -0.1182,308.761 H 3310.215 3208.6997 Z m 2519.888,345.2253 c -103.7613,-47.7114 -160.4499,-145.547 -159.9749,-276.1311 0.3567,-110.2036 47.4653,-194.256 133.447,-238.3165 43.2753,-22.1791 195.4169,-36.5079 367.7708,-34.6365 l 115.7255,1.2574 v -43.7041 c 0,-24.0375 -5.9219,-56.6014 -13.1747,-72.3665 -24.4382,-53.1551 -58.8955,-60.2466 -301.3619,-62.0215 l -225.5174,-1.6491 -3.4776,-90.4393 -3.4776,-90.4394 277.445,3.7252 277.4461,3.7263 58.0522,35.5974 c 127.3815,78.0925 146.7769,157.4211 147.3458,602.5086 l 0.3567,285.2364 -311.5698,-0.2705 c -278.1934,-0.2235 -316.6496,-2.596 -359.0468,-22.0885 z m 458.4766,-168.7905 c 0.8306,-8.0866 2.8243,-58.921 4.4264,-112.9653 l 2.9204,-98.2614 -181.2205,4.1651 c -156.0942,3.5839 -184.5915,7.1868 -205.5299,25.9665 -52.6284,47.2011 -41.3999,144.826 20.4867,178.1604 41.8515,22.5414 356.6372,25.1161 358.9169,2.9383 z m 366.4411,103.6531 v -88.9502 h 242.5497 c 243.6295,0 283.119,-5.0731 319.4032,-41.0235 25.7089,-25.4819 25.1158,-90.9262 -1.0681,-122.5681 -22.2545,-26.8392 -67.0137,-36.262 -281.8957,-59.3551 -198.218,-21.3003 -284.7929,-79.9285 -313.4221,-212.2441 -26.7053,-123.3666 24.2492,-237.753 129.6844,-291.1327 49.9582,-25.2973 64.9969,-26.4653 340.5548,-26.4653 h 288.223 v 88.2176 88.2173 h -224.0335 c -123.2158,0 -241.0902,3.3782 -261.9326,7.5103 -80.9136,16.0368 -92.2836,109.7165 -17.1041,140.8491 21.8398,9.0429 91.8932,21.752 155.6668,28.2424 173.2679,17.6353 247.2379,34.7659 303.9138,70.3823 73.5067,46.1977 96.7586,99.8774 96.842,223.5089 0.1182,125.991 -29.6024,186.6869 -117.6611,240.6454 l -58.3847,35.7693 -300.6621,3.6757 -300.6737,3.6769 z m 925.8113,-0.7292 v -88.2175 h 235.6178 c 243.6179,0 301.4326,-8.517 322.4892,-47.5126 18.0529,-33.4333 13.7331,-88.448 -9.1515,-116.42 -21.4598,-26.2383 -43.5012,-30.9279 -280.3295,-59.6328 -176.4848,-21.3909 -245.8965,-56.9836 -293.1243,-150.3307 -20.9501,-41.394 -24.7359,-66.0289 -21.0926,-137.4661 3.751,-73.6428 9.8872,-94.6774 39.8463,-136.7171 65.9457,-92.5072 89.7432,-98.3307 418.2029,-102.3534 l 287.8314,-3.5251 v 88.802 88.802 h -232.0452 c -247.3097,0 -291.8905,8.4959 -307.9614,58.6822 -23.406,73.0769 26.8478,99.5033 232.4611,122.2341 288.4003,31.8806 361.9185,82.8655 375.4733,260.3532 8.6175,112.9559 -17.0324,190.8612 -80.6044,244.7868 -71.608,60.7348 -108.7228,66.7324 -413.0282,66.7324 h -274.5849 z m 2183.9548,0 c 0,-48.5196 1.3414,-88.5386 2.9678,-88.9314 1.6254,-0.4 133.7077,-3.4675 293.4927,-6.8375 313.3856,-6.6069 350.2756,-13.1891 387.2246,-69.0707 30.208,-45.6884 28.962,-136.543 -2.433,-178.3239 -40.046,-53.2622 -83.239,-70.761 -265.826,-107.6876 -276.6735,-55.9534 -357.4921,-96.6675 -415.5559,-209.3141 -25.9348,-50.3262 -29.5433,-72.4383 -29.5433,-180.841 0,-114.3969 2.552,-128.06231 34.5512,-185.30722 36.7001,-65.6326 85.7084,-109.36016 158.337,-141.27494 37.1633,-16.33313 99.7739,-20.29107 379.807,-24.00803 l 335.309,-4.45082 v 100.51725 100.5161 l -314.288,3.48986 -314.2891,3.48987 -32.8889,32.61458 c -29.0799,28.83889 -32.89,41.32229 -32.89,107.85355 0,122.06 27.0493,139.5246 310.822,200.6958 170.763,36.8102 255.951,66.8559 306.288,108.0357 137.458,112.4443 152.426,393.838 28.059,527.5438 -85.625,92.0555 -123.323,99.5104 -503.1762,99.5104 h -325.9679 z"
     id="path1" />
</svg>
