<?xml version="1.0" encoding="UTF-8" standalone="no"?>
<svg
   width="2935.2649"
   height="2681.9836"
   viewBox="0 0 2935.2649 2681.9836"
   fill="none"
   version="1.1"
   id="svg17"
   sodipodi:docname="fedora-logo-sprite.svg"
   inkscape:version="1.4 (e7c3feb100, 2024-10-09)"
   xmlns:inkscape="http://www.inkscape.org/namespaces/inkscape"
   xmlns:sodipodi="http://sodipodi.sourceforge.net/DTD/sodipodi-0.dtd"
   xmlns:xlink="http://www.w3.org/1999/xlink"
   xmlns="http://www.w3.org/2000/svg"
   xmlns:svg="http://www.w3.org/2000/svg">
  <sodipodi:namedview
     id="namedview17"
     pagecolor="#ffffff"
     bordercolor="#000000"
     borderopacity="0.25"
     inkscape:showpageshadow="2"
     inkscape:pageopacity="0.0"
     inkscape:pagecheckerboard="0"
     inkscape:deskcolor="#d1d1d1"
     inkscape:zoom="0.19539026"
     inkscape:cx="1233.4289"
     inkscape:cy="918.67425"
     inkscape:window-width="1920"
     inkscape:window-height="1008"
     inkscape:window-x="0"
     inkscape:window-y="0"
     inkscape:window-maximized="1"
     inkscape:current-layer="svg17" />
  <defs
     id="defs17">
    <linearGradient
       id="paint0_linear_1341_154"
       x1="0.643004"
       y1="1341.42"
       x2="2737.3601"
       y2="1341.42"
       gradientUnits="userSpaceOnUse"
       gradientTransform="translate(-0.64355503,-0.42675761)"
       spreadMethod="pad">
      <stop
         stop-color="#FFECDB"
         id="stop6"
         offset="0.02893891"
         style="stop-color:#ffc18f;stop-opacity:1;" />
      <stop
         stop-color="#FFECDB"
         id="stop19"
         offset="0.19858521"
         style="stop-color:#c85479;stop-opacity:1;" />
      <stop
         stop-color="#FFECDB"
         id="stop18"
         offset="0.59003216"
         style="stop-color:#4c3b97;stop-opacity:1;" />
      <stop
         stop-color="#FFECDB"
         id="stop20"
         offset="0.80466241"
         style="stop-color:#4e5dad;stop-opacity:1;" />
      <stop
         offset="0.96784568"
         stop-color="#FF7D7F"
         id="stop7"
         style="stop-color:#5180c4;stop-opacity:1;" />
    </linearGradient>
    <linearGradient
       id="paint1_linear_1341_154"
       x1="3008.6899"
       y1="1109.6899"
       x2="10197.3"
       y2="1109.6899"
       gradientUnits="userSpaceOnUse">
      <stop
         stop-color="#FF7D7F"
         id="stop8" />
      <stop
         offset="1"
         stop-color="#C85479"
         id="stop9" />
    </linearGradient>
    <linearGradient
       id="paint2_linear_1341_154"
       x1="3008.6899"
       y1="1109.6899"
       x2="10197.3"
       y2="1109.6899"
       gradientUnits="userSpaceOnUse">
      <stop
         stop-color="#FF7D7F"
         id="stop10" />
      <stop
         offset="1"
         stop-color="#C85479"
         id="stop11" />
    </linearGradient>
    <linearGradient
       id="paint3_linear_1341_154"
       x1="3008.6899"
       y1="1109.6899"
       x2="10197.3"
       y2="1109.6899"
       gradientUnits="userSpaceOnUse">
      <stop
         stop-color="#FF7D7F"
         id="stop12" />
      <stop
         offset="1"
         stop-color="#C85479"
         id="stop13" />
    </linearGradient>
    <linearGradient
       id="paint4_linear_1341_154"
       x1="3008.6899"
       y1="1109.6899"
       x2="10197.3"
       y2="1109.6899"
       gradientUnits="userSpaceOnUse">
      <stop
         stop-color="#FF7D7F"
         id="stop14" />
      <stop
         offset="1"
         stop-color="#C85479"
         id="stop15" />
    </linearGradient>
    <linearGradient
       id="paint5_linear_1341_154"
       x1="3008.6899"
       y1="1109.6899"
       x2="10197.3"
       y2="1109.6899"
       gradientUnits="userSpaceOnUse">
      <stop
         stop-color="#FF7D7F"
         id="stop16" />
      <stop
         offset="1"
         stop-color="#C85479"
         id="stop17" />
    </linearGradient>
    <linearGradient
       id="paint6_linear_149_2"
       x1="0.64355499"
       y1="1341.84"
       x2="10718.8"
       y2="1341.84"
       gradientUnits="userSpaceOnUse">
      <stop
         stop-color="#FFC18F"
         id="stop49" />
      <stop
         offset="0.14575924"
         stop-color="#DE8673"
         id="stop50" />
      <stop
         offset="0.255"
         stop-color="#B64D66"
         id="stop51" />
      <stop
         offset="0.41957"
         stop-color="#82578B"
         id="stop52" />
      <stop
         offset="0.56"
         stop-color="#6B4793"
         id="stop53" />
      <stop
         offset="0.775"
         stop-color="#4F62B0"
         id="stop54" />
      <stop
         offset="1"
         stop-color="#5180C4"
         id="stop55" />
    </linearGradient>
    <linearGradient
       inkscape:collect="always"
       xlink:href="#paint6_linear_149_2"
       id="linearGradient4"
       x1="171.49323"
       y1="1339.3901"
       x2="2213.0176"
       y2="1339.3901"
       gradientUnits="userSpaceOnUse" />
  </defs>
  <g
     id="g29"
     transform="matrix(1.4306169,0,0,1.4306169,-237.51802,-561.58649)"
     style="fill:url(#linearGradient4)">
    <path
       style="fill:url(#linearGradient4);fill-opacity:1;stroke-width:11.8157"
       d="m 1843.2973,1813.0918 c -129.9029,-171.2065 -296.6821,-384.5998 -350.9886,-449.0855 -21.4102,-25.4255 -38.927,-55.5582 -38.927,-66.9653 0,-11.4059 115.4986,-137.4863 256.6649,-280.1786 l 256.665,-259.4392 h 123.1535 c 83.1279,0 123.1525,4.28979 123.1525,13.1985 0,12.97152 -54.4417,71.02213 -338.2751,360.7011 -78.3374,79.9509 -146.3369,152.268 -151.1095,160.7051 -5.1251,9.0593 4.5953,32.5957 23.7385,57.4836 109.5492,142.4218 187.516,241.8452 287.4419,366.5412 133.7289,166.8802 178.2042,225.3943 178.2042,234.4607 0,3.6675 -58.5894,6.6669 -130.1964,6.6669 h -130.1974 z"
       id="path21" />
    <path
       style="fill:url(#linearGradient4);fill-opacity:1;stroke-width:11.8157"
       d="M 185.73641,2001.8771 C 174.95785,1991.1946 171.49323,1805.771 171.49323,1239.3762 V 490.99014 l 27.47157,-25.57483 c 25.41098,-23.65755 39.51537,-25.57483 188.06942,-25.57483 140.51135,0 163.05603,2.68892 180.24277,21.5097 16.99328,18.60924 19.64259,55.55936 19.64259,273.95747 v 252.44779 l -92.68046,123.92316 c -152.93984,204.4962 -148.80091,190.459 -156.192,529.635 -5.83615,267.8023 -8.12693,291.9891 -30.05672,317.3911 -50.43746,58.4223 -92.03939,73.1134 -122.25399,43.1724 z"
       id="path18" />
    <path
       style="fill:url(#linearGradient4);fill-opacity:1;stroke-width:11.8157"
       d="m 1257.0086,2165.9604 c -38.184,-40.433 -109.7677,-116.019 -159.0768,-167.9684 -49.307,-51.9506 -167.09795,-176.2067 -261.75623,-276.1264 -94.65693,-99.9198 -218.8397,-230.7651 -275.96081,-290.7694 -57.12237,-60.0031 -103.85774,-113.8864 -103.85774,-119.7392 0,-25.7725 150.32135,-185.2437 586.15058,-621.83415 l 249.7804,-250.21638 201.2291,3.20519 c 147.4134,2.3513 202.541,7.11622 206.1337,17.8223 2.6966,8.03837 -101.4267,121.84009 -231.3877,252.89117 -317.552,320.21277 -572.74033,587.34457 -572.74033,599.54457 0,5.4894 65.42953,77.4466 145.39963,159.9039 144.8803,149.3875 332.9906,348.8823 563.8928,598.0213 66.8586,72.1395 121.5609,139.6259 121.5609,149.9697 0,16.492 -24.6282,18.8091 -199.9721,18.8091 h -199.9722 z"
       id="path17" />
  </g>
</svg>
